<?xml version="1.0" standalone="no"?><!DOCTYPE svg PUBLIC "-//W3C//DTD SVG 1.1//EN" "http://www.w3.org/Graphics/SVG/1.1/DTD/svg11.dtd"><svg t="1583748172714" class="icon" viewBox="0 0 1024 1024" version="1.1" xmlns="http://www.w3.org/2000/svg" p-id="10729" width="128" height="128" xmlns:xlink="http://www.w3.org/1999/xlink"><defs><style type="text/css"></style></defs><path d="M564.193 950.085l-515.103-515.103c-28.212-28.212-28.212-74.125 0-102.35l283.555-283.542c28.225-28.212 74.138-28.212 102.35 0l26.003 26.003c8.527 8.527 8.527 22.354 0 30.881s-22.341 8.527-30.869 0l-26.003-26.016c-11.196-11.196-29.405-11.196-40.601 0l-283.567 283.567c-11.196 11.183-11.196 29.405 0 40.601l515.103 515.103c11.183 11.196 29.392 11.196 40.588 0l283.567-283.567c11.196-11.183 11.196-29.392 0-40.588l-396.48-396.493c-8.54-8.527-8.54-22.341 0-30.869 8.527-8.527 22.354-8.527 30.869 0l396.468 396.48c28.212 28.201 28.212 74.125 0 102.338l-283.542 283.555c-28.212 28.212-74.125 28.212-102.338 0z" p-id="10730" fill="#d4237a"></path><path d="M303.301 104.197l504.787 504.787-91.839 91.839-504.787-504.787 91.839-91.839z" p-id="10731" fill="#d4237a"></path><path d="M95.866 324.060l486.172 486.172-17.553 17.553-486.172-486.172 17.553-17.553z" p-id="10732" fill="#d4237a"></path></svg>